<svg width="30" height="22" viewBox="0 0 30 22" fill="none" xmlns="http://www.w3.org/2000/svg">
<path d="M2.40002 1.48148L3.00003 1L4.00003 0.2H8.81579L9.50003 0.5L12 5L13.1724 4.31045L15.765 0.236378L16.4741 0H20.5482L21.6 0.5V12L22.2 11.4815H28.6963L29.0667 12.2222V17.4074L28.6963 18.5185L23.5111 19.2593L14.6222 18.5185L13.8815 13.3333L10.5482 12.963L9.10003 10V18.4L5.73336 20L2.40002 19.2593V1.48148Z" fill="white"/>
<path d="M12.4233 8.72922C12.727 8.72922 12.9462 8.66175 13.0812 8.52681C13.2161 8.39186 13.427 8.10511 13.7137 7.66654L16.8006 2.96035C16.9018 2.79166 17.0114 2.68202 17.1295 2.63142C17.2645 2.56395 17.3994 2.53021 17.5344 2.53021H17.9645C18.2006 2.53021 18.3693 2.59768 18.4705 2.73263C18.5886 2.8507 18.6476 3.04469 18.6476 3.31457V16.1933H18.3946V3.31457C18.3946 3.17963 18.3609 3.06155 18.2934 2.96035C18.2428 2.84227 18.1332 2.78323 17.9645 2.78323H17.585C17.4669 2.78323 17.3657 2.8001 17.2813 2.83383C17.197 2.86757 17.1042 2.96878 17.003 3.13746L13.9162 7.79305C13.6125 8.24848 13.3764 8.56054 13.2077 8.72922C13.0559 8.89791 12.7944 8.98225 12.4233 8.98225C12.0522 8.98225 11.7823 8.89791 11.6137 8.72922C11.4619 8.56054 11.2341 8.24848 10.9305 7.79305L7.84365 3.13746C7.74244 2.96878 7.64123 2.86757 7.54003 2.83383C7.45569 2.8001 7.35448 2.78323 7.2364 2.78323H6.85687C6.68819 2.78323 6.57855 2.84227 6.52794 2.96035C6.47734 3.06155 6.45204 3.17963 6.45204 3.31457V16.1933H6.19901V3.31457C6.19901 3.04469 6.24962 2.8507 6.35083 2.73263C6.4689 2.59768 6.63758 2.53021 6.85687 2.53021H7.287C7.42195 2.53021 7.55689 2.56395 7.69184 2.63142C7.82678 2.68202 7.94486 2.79166 8.04607 2.96035L11.1329 7.66654C11.4197 8.10511 11.6305 8.39186 11.7655 8.52681C11.9004 8.66175 12.1197 8.72922 12.4233 8.72922ZM8.19788 18.4705C8.51837 18.4705 8.74609 18.4031 8.88104 18.2681C9.03285 18.1163 9.10876 17.8802 9.10876 17.5597V8.65332L10.6016 11.4112C10.7534 11.698 10.9305 11.9089 11.1329 12.0438C11.3522 12.1619 11.6221 12.2209 11.9426 12.2209H12.9547C13.2752 12.2209 13.5366 12.1619 13.739 12.0438C13.9583 11.9089 14.1439 11.698 14.2957 11.4112L15.7885 8.65332V17.5597C15.7885 17.8802 15.856 18.1163 15.9909 18.2681C16.1427 18.4031 16.3789 18.4705 16.6994 18.4705H20.5959C20.9164 18.4705 21.1441 18.4031 21.2791 18.2681C21.4309 18.1163 21.5068 17.8802 21.5068 17.5597V1.1639C21.5068 0.843404 21.4309 0.615685 21.2791 0.48074C21.1441 0.328927 20.9164 0.253021 20.5959 0.253021H16.497C16.2271 0.253021 15.9994 0.312059 15.8138 0.430135C15.6451 0.548212 15.4849 0.742194 15.3331 1.01208L13.0812 5.13633C12.9968 5.28814 12.9209 5.39778 12.8535 5.46525C12.8029 5.53273 12.727 5.56646 12.6257 5.56646H12.398C12.2968 5.56646 12.2125 5.53273 12.145 5.46525C12.0944 5.39778 12.0269 5.28814 11.9426 5.13633L9.6654 1.01208C9.51359 0.742194 9.34491 0.548212 9.15936 0.430135C8.99068 0.312059 8.77139 0.253021 8.50151 0.253021H4.42787C4.10737 0.253021 3.87122 0.328927 3.71941 0.48074C3.58446 0.615685 3.51699 0.843404 3.51699 1.1639V17.5597C3.51699 17.8802 3.58446 18.1163 3.71941 18.2681C3.87122 18.4031 4.10737 18.4705 4.42787 18.4705H8.19788ZM9.00755 18.4958L5.71827 21.2285C5.6508 21.2959 5.54116 21.355 5.38935 21.4056C5.2544 21.4562 5.10259 21.4815 4.93391 21.4815H1.1639C0.759063 21.4815 0.463872 21.3887 0.278323 21.2032C0.0927744 21.0176 0 20.7224 0 20.3176V3.92182C0 3.70254 0.0253021 3.51699 0.0759063 3.36518C0.143379 3.21337 0.236153 3.08686 0.354229 2.98565L3.6182 0.227719C3.70254 0.160247 3.81218 0.109642 3.94713 0.0759053C4.09894 0.0253018 4.25919 0 4.42787 0H8.50151C8.822 0 9.08345 0.0674719 9.28587 0.202416C9.50516 0.337361 9.70757 0.56508 9.89312 0.885573L11.6137 4.04834L11.8414 3.6435C11.9089 3.52543 11.9763 3.41578 12.0438 3.31457C12.1281 3.1965 12.2125 3.10372 12.2968 3.03625L15.5608 0.303624C15.6957 0.202416 15.8307 0.12651 15.9656 0.0759053C16.1174 0.0253018 16.2946 0 16.497 0H20.5959C21.0007 0 21.2959 0.0927742 21.4815 0.278323C21.667 0.463872 21.7598 0.759063 21.7598 1.1639V17.5597C21.7598 17.7789 21.7261 17.9645 21.6586 18.1163C21.608 18.2681 21.5237 18.3946 21.4056 18.4958L18.1163 21.2285C18.0488 21.2959 17.9392 21.355 17.7874 21.4056C17.6524 21.4562 17.5006 21.4815 17.3319 21.4815H13.4354C13.0137 21.4815 12.7101 21.3887 12.5245 21.2032C12.3559 21.0176 12.2715 20.7224 12.2715 20.3176V13.6378L10.7787 14.8776C10.6437 14.9957 10.4835 15.0885 10.298 15.156C10.1293 15.2066 9.92686 15.2319 9.6907 15.2319H9.36178V17.5597C9.36178 17.7789 9.32804 17.9645 9.26057 18.1163C9.20996 18.2681 9.12562 18.3946 9.00755 18.4958Z" fill="url(#paint0_radial_2926_4287)"/>
<path d="M24.6751 21.4815H19.5641C19.1592 21.4815 18.864 21.3887 18.6785 21.2032C18.4929 21.0176 18.4002 20.7224 18.4002 20.3176V15.1813C18.4002 14.962 18.4255 14.7764 18.4761 14.6246C18.5435 14.4559 18.6279 14.3294 18.7291 14.2451L22.0184 11.4872C22.1027 11.4197 22.2123 11.3691 22.3473 11.3353C22.4822 11.2847 22.6425 11.2594 22.828 11.2594H27.9391C28.3439 11.2594 28.6391 11.3522 28.8246 11.5378C29.0102 11.7064 29.1029 12.0016 29.1029 12.4233V17.5597C29.1029 17.7789 29.0692 17.9645 29.0017 18.1163C28.9511 18.2681 28.8668 18.3946 28.7487 18.4958L25.4594 21.2285C25.392 21.2959 25.2823 21.355 25.1305 21.4056C24.9956 21.4562 24.8438 21.4815 24.6751 21.4815ZM27.9391 18.4705C28.2595 18.4705 28.4873 18.4031 28.6222 18.2681C28.774 18.1163 28.8499 17.8802 28.8499 17.5597V12.4233C28.8499 12.1028 28.774 11.8751 28.6222 11.7402C28.4873 11.5884 28.2595 11.5125 27.9391 11.5125H22.828C22.5075 11.5125 22.2714 11.5884 22.1196 11.7402C21.9846 11.8751 21.9172 12.1028 21.9172 12.4233V17.5597C21.9172 17.8802 21.9846 18.1163 22.1196 18.2681C22.2714 18.4031 22.5075 18.4705 22.828 18.4705H27.9391ZM25.257 16.1933V13.7896H25.51V16.1933H25.257Z" fill="url(#paint1_radial_2926_4287)"/>
<defs>
<radialGradient id="paint0_radial_2926_4287" cx="0" cy="0" r="1" gradientTransform="matrix(23.4605 23.9877 -4.31531 55.2088 5.64241 10.7407)" gradientUnits="userSpaceOnUse">
<stop stop-color="#A2CCAA"/>
<stop offset="0.0625" stop-color="#39606C"/>
<stop offset="0.129808" stop-color="#1F5075"/>
<stop offset="0.298077" stop-color="#207CC1"/>
<stop offset="0.610577" stop-color="#5461A3"/>
<stop offset="0.75" stop-color="#766D9E"/>
<stop offset="1" stop-color="#D6B385"/>
</radialGradient>
<radialGradient id="paint1_radial_2926_4287" cx="0" cy="0" r="1" gradientTransform="matrix(23.4605 23.9877 -4.31531 55.2088 5.64241 10.7407)" gradientUnits="userSpaceOnUse">
<stop stop-color="#A2CCAA"/>
<stop offset="0.0625" stop-color="#39606C"/>
<stop offset="0.129808" stop-color="#1F5075"/>
<stop offset="0.298077" stop-color="#207CC1"/>
<stop offset="0.610577" stop-color="#5461A3"/>
<stop offset="0.75" stop-color="#766D9E"/>
<stop offset="1" stop-color="#D6B385"/>
</radialGradient>
</defs>
</svg>
